<svg width="67" height="52" viewBox="0 0 67 52" fill="none" xmlns="http://www.w3.org/2000/svg">
<path d="M2.09375 44.8058C2.09375 42.5429 2.09572 40.2799 2.09967 38.0169L2.63516 37.9897C2.34838 36.824 2.35938 35.6905 2.92702 34.631C3.74591 33.1016 5.1189 32.3844 6.76514 32.1058C7.14195 32.0491 7.52287 32.0247 7.9038 32.0327C10.5703 32.0327 13.2333 32.0454 15.9032 32.0327C16.7743 32.0219 17.6397 32.1753 18.4546 32.4847C18.7744 32.6071 18.8844 32.5994 18.8776 32.2026C18.8556 30.7412 18.8691 29.2797 18.8691 27.8183V27.4326L25.0336 33.732L25.1851 33.6471C25.1851 33.2222 25.1961 32.7974 25.1851 32.3683C25.1774 32.1372 25.2155 32.0284 25.4896 32.0335C27.4759 32.0454 29.4622 32.0454 31.4485 32.0335C31.6854 32.0335 31.7666 32.1058 31.7379 32.3343C31.7309 32.4571 31.7309 32.5803 31.7379 32.7031C32.4349 32.3836 33.1202 32.1363 33.8578 32.0803C34.0879 32.0624 34.318 32.0412 34.549 32.0403C37.5149 32.0403 40.4809 32.0403 43.4468 32.0403C44.0855 32.0403 44.7242 32.0403 45.3553 32.1661C45.5871 32.2111 45.7503 32.0267 45.9914 32.0284C50.4133 32.0463 54.8351 32.0284 59.2561 32.048C61.058 32.0556 62.7516 32.4847 64.0781 33.7966C65.9992 35.7016 66.4095 38.0271 65.6566 40.5498C64.8386 43.2925 62.6602 44.8644 59.7645 44.8763C54.7987 44.8959 49.8329 44.8763 44.8672 44.8933C44.6007 44.8933 44.4755 44.6962 44.2615 44.6529C44.2276 45.0573 43.9155 44.8712 43.7361 44.8729C41.9401 44.8874 40.1442 44.8814 38.3482 44.8814C37.7205 44.8814 37.7205 44.8814 37.6604 44.251C35.6995 45.1295 33.7386 45.0454 31.7514 44.2331V49.451L25.5987 43.2722L25.4541 43.3444C25.4541 43.7412 25.4405 44.138 25.4583 44.5339C25.4702 44.7888 25.4202 44.8874 25.1326 44.8857C23.1598 44.8712 21.1871 44.8593 19.2109 44.8908C18.7033 44.8993 18.9571 44.5246 18.8387 44.3444C16.6992 45.1644 14.7781 44.9392 13.1707 44.2501C13.1555 44.2671 13.1268 44.2833 13.1259 44.3011C13.0971 44.8959 13.0971 44.8959 12.4991 44.8789C12.0642 44.8661 11.6294 44.8542 11.1946 44.8525C8.25628 44.8412 5.31827 44.8313 2.38053 44.8228C2.28409 44.8211 2.1885 44.8118 2.09375 44.8058Z" fill="#222222"/>
<path d="M34.7334 23.1723C34.6014 23.2895 34.4627 23.4 34.3384 23.5241C33.1058 24.7578 31.8707 25.9881 30.6483 27.2337C30.4123 27.4733 30.2041 27.5643 29.8649 27.4317C25.2967 25.6559 22.5541 22.3626 21.8867 17.4905C21.0179 11.1443 25.4752 5.20934 31.7709 4.15065C33.0173 3.94228 34.288 3.92481 35.5396 4.09882C35.5523 4.2849 35.4076 4.34608 35.3197 4.43444C34.4306 5.33595 33.5271 6.22725 32.6439 7.13725C32.4644 7.32008 32.2346 7.44493 31.984 7.49582C28.3786 8.36418 26.1122 10.6167 25.2536 14.2244C24.4161 17.7446 26.1072 21.6165 29.1881 23.468C29.4089 23.6014 29.5384 23.5818 29.7025 23.3983C29.974 23.0933 30.2667 22.8035 30.5485 22.5146C30.5924 22.3065 30.7836 22.2232 30.9139 22.0898C32.3047 20.6861 33.6982 19.2856 35.0946 17.8882C35.1647 17.8233 35.23 17.7535 35.2901 17.6792C35.3899 17.5475 35.5083 17.4013 35.3653 17.2424C35.2224 17.0835 35.0667 17.1753 34.9322 17.2798C34.763 17.4132 34.5888 17.5475 34.4246 17.6953C33.9361 18.1323 33.3772 18.4825 32.7716 18.731C31.0696 19.4652 29.4047 18.6053 28.5672 17.2756C27.6916 15.8855 27.9953 14.5651 28.821 13.288C29.0987 12.8793 29.4195 12.5019 29.7778 12.1622C30.7363 11.2131 31.6854 10.2539 32.6354 9.29627C32.7746 9.14702 32.9341 9.01829 33.1092 8.91392C34.4449 7.57144 35.79 6.2383 37.1089 4.88052C37.3804 4.60183 37.5995 4.56019 37.9548 4.70209C42.1694 6.39464 44.8139 9.44497 45.6361 13.9295C46.8814 20.7193 42.1753 26.9635 35.6403 27.9364C34.5538 28.1132 33.4476 28.13 32.3563 27.9865C32.3123 27.8378 32.4349 27.7869 32.5052 27.7172C33.4831 26.7299 34.4669 25.7468 35.4449 24.7595C35.5777 24.6234 35.7455 24.5269 35.9296 24.4808C39.4403 23.5385 41.9858 20.7363 42.3919 17.1201C42.7937 13.5412 41.4199 10.7033 38.4455 8.66242C38.2695 8.54261 38.1528 8.52902 38.0005 8.70065C37.7112 9.02523 37.3999 9.33026 37.0987 9.64379C37.0361 9.95307 36.7798 10.1179 36.5717 10.2997C35.5312 11.2038 34.6091 12.2285 33.6252 13.1886C33.2022 13.5982 32.786 14.0077 32.3893 14.4385C32.2328 14.6084 31.9621 14.8344 32.1828 15.0622C32.4036 15.2899 32.6304 15.0188 32.7995 14.8625C33.3528 14.3527 33.9424 13.8981 34.6302 13.5778C36.7451 12.5947 38.6062 13.7902 39.3287 15.5014C39.6882 16.3511 39.6307 17.2382 39.2737 18.0921C38.9588 18.8358 38.5048 19.5119 37.9362 20.0837C37.0217 21.0065 36.1022 21.9216 35.1919 22.8375C35.0619 22.9776 34.9062 23.0912 34.7334 23.1723V23.1723Z" fill="#24B8FE"/>
<path d="M14.954 4.39962C15.7662 4.40812 16.2407 5.23655 15.8406 5.98681C15.1994 7.19165 14.6292 8.42538 14.229 9.73217C12.5134 15.34 13.0269 20.7349 15.7695 25.9167C16.1485 26.6296 15.9844 27.3111 15.3576 27.577C14.8136 27.8081 14.2849 27.6033 13.96 27.0171C12.97 25.2433 12.2327 23.3387 11.7698 21.3591C10.4586 15.6782 11.1726 10.2644 13.9118 5.1176C14.1402 4.68851 14.4388 4.39368 14.954 4.39962Z" fill="#24B8FE"/>
<path d="M56.4111 15.1514C56.3993 19.9036 55.4713 23.5232 53.6474 26.9125C53.3707 27.4223 52.9706 27.6594 52.5019 27.5923C52.2782 27.5594 52.0707 27.456 51.9092 27.2971C51.7478 27.1381 51.6407 26.9318 51.6035 26.7078C51.546 26.407 51.6585 26.1495 51.799 25.8929C52.9657 23.7759 53.7397 21.4634 54.083 19.0684C54.7192 14.5549 53.9925 10.2683 51.837 6.23828C51.6814 5.9477 51.5291 5.65881 51.6112 5.30874C51.7135 4.87371 52.0265 4.55253 52.4216 4.48541C52.9368 4.40044 53.3251 4.57038 53.5882 5.03685C54.2072 6.1431 54.7259 7.30305 55.138 8.50266C55.978 10.948 56.4255 13.4588 56.4111 15.1514Z" fill="#24B8FE"/>
<path d="M17.9919 6.11762C18.8277 6.11762 19.2946 6.9554 18.8725 7.732C18.1792 8.98473 17.6465 10.3206 17.2872 11.7076C16.2156 15.956 16.6753 20.0344 18.6661 23.9429C18.7405 24.0891 18.8243 24.2301 18.8962 24.3762C19.1754 24.9438 19.0096 25.5496 18.5028 25.8317C17.9699 26.1274 17.3591 25.9464 17.0402 25.3789C16.3694 24.1914 15.8366 22.9304 15.4523 21.6208C13.9651 16.4921 14.4656 11.566 16.9539 6.84239C17.1781 6.40651 17.4708 6.09978 17.9919 6.11762Z" fill="#24B8FE"/>
<path d="M52.9309 15.9994C52.8945 19.2969 52.1433 22.3498 50.6011 25.1996C50.25 25.8488 49.6325 26.068 49.0733 25.7451C48.5386 25.4392 48.41 24.8147 48.7543 24.1758C50.1059 21.6844 50.8161 18.8932 50.8203 16.056C50.8246 13.2188 50.1229 10.4255 48.7789 7.93001C48.6097 7.62158 48.487 7.31229 48.5792 6.95713C48.6291 6.75706 48.7381 6.57686 48.892 6.44034C49.0459 6.30381 49.2374 6.21737 49.4413 6.19242C49.9209 6.13465 50.2923 6.30798 50.5326 6.73792C51.2344 8.00047 51.788 9.3406 52.1822 10.7314C52.6679 12.4453 52.9198 14.2174 52.9309 15.9994V15.9994Z" fill="#24B8FE"/>
<path d="M33.1049 8.9139C31.9437 10.1034 30.7822 11.2913 29.6204 12.4774C28.9555 13.1614 28.4242 13.9346 28.2288 14.8863C27.9463 16.2525 28.4826 17.3172 29.5121 18.1634C30.496 18.9715 31.5932 19.0938 32.764 18.6223C33.5592 18.3019 34.225 17.7887 34.8374 17.1991C35.0236 17.0198 35.2308 16.9187 35.4474 17.1141C35.6639 17.3095 35.5878 17.544 35.4076 17.7233C33.8358 19.2929 32.2612 20.8592 30.6838 22.422C30.6419 22.4561 30.5972 22.4866 30.5501 22.5129C28.8506 21.5783 27.6214 20.2383 26.9903 18.3818C25.5395 14.113 28.3295 9.5588 32.7801 8.92749C32.888 8.91699 32.9965 8.91245 33.1049 8.9139V8.9139Z" fill="#222222"/>
<path d="M34.7334 23.1723C35.7942 22.0975 36.8627 21.0294 37.9125 19.9436C38.6815 19.1466 39.2348 18.2349 39.4226 17.109C39.7804 14.9594 37.3923 12.4613 34.7977 13.6135C34.0541 13.944 33.4179 14.4215 32.8258 14.973C32.61 15.1735 32.3605 15.4734 32.0695 15.1803C31.7785 14.8871 32.0746 14.6246 32.2793 14.4207C33.8807 12.8267 35.4372 11.1868 37.0919 9.64636C38.437 10.4111 39.5097 11.4366 40.2068 12.8326C42.3538 17.1303 39.7711 22.3065 35.0574 23.1553C34.9498 23.1674 34.8416 23.1731 34.7334 23.1723Z" fill="#222222"/>
<path d="M18.1035 16.0588C18.1281 13.3271 18.7651 10.8027 20.0492 8.44828C20.3191 7.95462 20.6727 7.76854 21.1803 7.82802C21.3908 7.85501 21.5879 7.94662 21.7446 8.09033C21.9013 8.23405 22.01 8.42286 22.0558 8.63096C22.132 8.9292 22.0457 9.19684 21.9053 9.45429C20.8024 11.4565 20.2208 13.706 20.2145 15.9942C20.2081 18.2824 20.7772 20.5352 21.8689 22.5435C22.2183 23.1944 22.0855 23.8325 21.5254 24.1333C20.9654 24.434 20.38 24.2131 20.0306 23.5759C18.7713 21.272 18.1086 18.6871 18.1035 16.0588V16.0588Z" fill="#24B8FE"/>
<path d="M49.4463 15.6663C49.4286 18.6588 48.8136 21.1586 47.5607 23.4969C47.2511 24.0764 46.746 24.3058 46.2139 24.1214C45.5888 23.9047 45.3291 23.2021 45.6657 22.5707C46.3411 21.3239 46.8205 19.9797 47.087 18.5858C47.6729 15.4284 47.2158 12.431 45.7157 9.59368C45.3527 8.90374 45.5279 8.22825 46.1386 7.96316C46.3846 7.856 46.6619 7.84666 46.9144 7.93705C47.167 8.02744 47.3759 8.21079 47.4989 8.45002C48.4157 10.1094 49.0211 11.9238 49.2848 13.803C49.3888 14.5345 49.4599 15.2678 49.4463 15.6663Z" fill="#24B8FE"/>
<path d="M39.0647 38.0118C39.3185 40.3399 37.7027 42.4981 35.4508 42.832C33.0305 43.1906 30.8098 41.6824 30.3606 39.3619C29.7685 36.287 32.3664 33.9835 34.6987 34.0413C37.9345 34.1212 41.1737 34.0753 44.4112 34.0872C45.0195 34.0889 45.6112 34.287 46.0989 34.6522C46.5866 35.0173 46.9446 35.5303 47.1199 36.1153C47.2947 36.6949 47.277 37.3158 47.0694 37.8843C46.8619 38.4528 46.4758 38.9381 45.9694 39.2668C45.6429 39.4783 45.7275 39.5582 45.9254 39.8089C46.3239 40.3136 46.8036 40.4189 47.4152 40.4096C49.9311 40.3705 52.4478 40.3841 54.9645 40.3629C55.2648 40.3629 55.3604 40.4274 55.3469 40.7401C55.319 41.3536 55.33 41.9687 55.3469 42.5831C55.3469 42.8091 55.2936 42.8898 55.0542 42.8889C51.9247 42.8816 48.7947 42.8816 45.664 42.8889C45.4238 42.8889 45.291 42.7538 45.1489 42.6111C44.2837 41.7439 43.418 40.8758 42.5518 40.0068C42.4587 39.9142 42.3885 39.7893 42.1956 39.7349V42.3494C42.1956 42.8838 42.1956 42.8838 41.6517 42.8838C41.0798 42.8838 40.5088 42.877 39.9369 42.8881C39.7237 42.8881 39.6594 42.8193 39.6603 42.6051C39.6679 40.9126 39.6721 39.2192 39.6603 37.5258C39.6603 37.2429 39.7812 37.2225 39.9987 37.2233C41.3319 37.2301 42.6651 37.2233 43.9983 37.2233H44.2843C44.4941 37.2233 44.687 37.1613 44.6887 36.9208C44.6903 36.6804 44.5144 36.6039 44.2953 36.6098C44.1726 36.6098 44.05 36.6098 43.9281 36.6098C40.8827 36.6098 37.835 36.6098 34.785 36.6098C33.7369 36.6098 32.9789 37.2641 32.8393 38.2684C32.6946 39.288 33.4712 40.2303 34.5634 40.3544C35.5185 40.4623 36.4964 39.6355 36.5581 38.661C36.57 38.4715 36.5514 38.2795 36.5471 38.0883C36.5471 37.9183 36.6901 37.898 36.8009 37.892C37.4857 37.8535 38.172 37.8549 38.8566 37.8963C38.8972 37.9008 38.9364 37.9133 38.9721 37.9332C39.0079 37.953 39.0393 37.9797 39.0647 38.0118V38.0118Z" fill="#FEFEFE"/>
<path d="M14.2544 38.0059C14.1631 38.6389 14.229 39.2286 14.6909 39.7222C15.3076 40.3833 16.19 40.5524 16.9522 40.1471C17.3232 39.9531 17.6191 39.6403 17.793 39.2583C17.967 38.8763 18.009 38.4469 17.9124 38.0382C17.8057 37.6325 17.5689 37.2734 17.2386 37.0166C16.9082 36.7598 16.5028 36.6195 16.0851 36.6175C14.2629 36.6039 12.4407 36.6056 10.6176 36.6014C9.80214 36.6014 8.98579 36.6014 8.16944 36.6014C8.07469 36.6014 7.97909 36.5971 7.88435 36.6014C7.69739 36.6133 7.49859 36.6626 7.49351 36.8767C7.48844 37.1163 7.70162 37.1673 7.89873 37.1851C8.23711 37.2174 8.58057 37.2157 8.91388 37.276C9.98233 37.4706 10.8934 37.8954 11.2428 39.0433C11.7419 40.6815 10.8198 42.1514 9.07884 42.5125C8.54335 42.6239 8.00024 42.6357 7.45714 42.6374C6.35739 42.6374 5.25341 42.6307 4.15197 42.6434C3.88296 42.6434 3.80428 42.5661 3.81359 42.2967C3.83305 41.6969 3.83897 41.0944 3.81359 40.4954C3.79921 40.1641 3.88211 40.0527 4.23149 40.0604C5.36 40.0833 6.48936 40.0689 7.61533 40.0689C7.71093 40.0689 7.80567 40.0689 7.90127 40.0689C8.09753 40.0646 8.26926 39.995 8.2718 39.7783C8.27433 39.5616 8.11529 39.486 7.91142 39.4818C7.49012 39.4773 7.07056 39.4266 6.66024 39.3305C5.13752 38.9626 4.44298 38.0399 4.52843 36.468C4.59526 35.2487 5.58334 34.3107 6.97748 34.1569C7.4097 34.1114 7.84398 34.0884 8.27856 34.088C10.8898 34.0824 13.5012 34.0824 16.113 34.088C18.2389 34.088 20.0822 35.6005 20.4274 37.7043C20.7167 39.4639 20.1567 40.95 18.7118 42.0214C17.2847 43.0793 15.7044 43.2033 14.1335 42.4301C12.5625 41.6569 11.7149 40.3297 11.6852 38.5344C11.6852 38.3585 11.6548 38.1784 11.7225 38.0067C11.817 37.9266 11.9372 37.8834 12.0609 37.8852C12.6812 37.8699 13.3016 37.8699 13.922 37.8852C13.9827 37.8809 14.0436 37.8895 14.1009 37.9102C14.1582 37.931 14.2104 37.9636 14.2544 38.0059V38.0059Z" fill="#FEFEFE"/>
<path d="M58.3712 40.3705C58.8331 40.362 59.3018 40.3968 59.756 40.3374C60.8143 40.1997 61.486 39.3543 61.4107 38.3177C61.3405 37.3576 60.525 36.6184 59.5014 36.6184C58.0861 36.6107 56.6708 36.6184 55.2564 36.6184C53.6778 36.6184 52.0993 36.6184 50.519 36.6184C50.2864 36.6184 50.1603 36.6303 50.1569 36.9327C50.1569 37.2582 50.3185 37.2386 50.5351 37.2369C51.3514 37.2369 52.1678 37.2446 52.9884 37.2301C53.2362 37.225 53.3183 37.2904 53.3107 37.5487C53.2929 38.1894 53.2971 38.8317 53.3107 39.4741C53.3107 39.6814 53.265 39.7553 53.0425 39.7545C51.3275 39.7454 49.613 39.7454 47.8991 39.7545C47.7096 39.7545 47.6453 39.7086 47.6453 39.5055C47.6521 37.785 47.6546 36.0644 47.6453 34.3438C47.6453 34.0498 47.8145 34.0965 47.9904 34.0965H53.869C55.8012 34.0965 57.7334 34.0693 59.6655 34.1042C61.442 34.1365 62.771 35.015 63.5316 36.5971C64.2921 38.1792 64.1407 39.7613 63.0536 41.176C62.2728 42.1956 61.2399 42.8048 59.9286 42.866C58.6174 42.9272 57.318 42.8745 56.0135 42.8932C55.8266 42.8932 55.7877 42.8082 55.7877 42.6383C55.791 41.1655 55.791 39.6905 55.7877 38.2132C55.7877 37.9685 55.934 37.9039 56.126 37.8954C56.7515 37.8671 57.3769 37.8671 58.0024 37.8954C58.2316 37.9056 58.3306 38.0246 58.3255 38.2676C58.312 38.8411 58.3171 39.4146 58.3255 39.9882C58.312 40.1114 58.2536 40.2558 58.3712 40.3705Z" fill="#FEFEFE"/>
<path d="M23.4441 38.423C23.4441 39.8564 23.4356 41.1658 23.4508 42.4751C23.4508 42.7802 23.3984 42.9093 23.0549 42.8932C22.4315 42.8617 21.8046 42.8796 21.1794 42.8864C20.9993 42.8864 20.907 42.8507 20.9079 42.6408C20.9158 39.2421 20.92 35.8434 20.9206 32.4447C20.9206 32.4371 20.9417 32.4295 21.0466 32.3555L27.0597 38.5964C27.2094 38.3117 27.1688 38.1622 27.1697 38.0195C27.1739 36.8299 27.1841 35.6446 27.1638 34.4576C27.1587 34.1432 27.2484 34.0651 27.5521 34.0761C28.1908 34.0999 28.8303 34.0897 29.469 34.0804C29.6585 34.0804 29.7346 34.1296 29.7346 34.331C29.7304 37.7399 29.7346 41.1488 29.7346 44.6758L23.4441 38.423Z" fill="#FEFEFE"/>
<path d="M58.3712 40.3705C58.1859 40.3008 58.2638 40.1394 58.2621 40.0187C58.2536 39.4588 58.2485 38.8997 58.2621 38.3398C58.268 38.0993 58.2046 37.9999 57.9448 38.0059C57.3468 38.022 56.7478 38.0237 56.1497 38.0059C55.8706 37.9974 55.8113 38.1095 55.8113 38.3661C55.8206 39.7443 55.8232 41.1225 55.8113 42.5006C55.8113 42.7861 55.9188 42.8354 56.1692 42.8354C57.4195 42.8354 58.6698 42.8473 59.9193 42.8558C59.8533 42.9212 59.7687 42.9068 59.6884 42.9068C58.4786 42.9068 57.2681 42.9017 56.0575 42.9127C55.8105 42.9127 55.7293 42.8414 55.731 42.5882C55.7417 40.8956 55.7417 39.2028 55.731 37.5097C55.731 37.2548 55.808 37.1825 56.0558 37.1885C56.7081 37.2038 57.362 37.2072 58.0142 37.1885C58.2993 37.18 58.3526 37.2972 58.3526 37.5496C58.3433 38.4902 58.2866 39.4308 58.3712 40.3705Z" fill="#BFBFBF"/>
<path d="M39.0647 38.0118C38.3643 38.0118 37.663 38.0118 36.9625 38.0118C36.8212 38.0118 36.6622 37.9575 36.5438 38.0917L36.1056 37.1927C37.0116 37.1927 37.888 37.1927 38.7636 37.1927C38.9776 37.1927 38.9751 37.3406 39.0131 37.4901C39.0698 37.6578 39.0875 37.8363 39.0647 38.0118V38.0118Z" fill="#BFBFBF"/>
<path d="M14.2544 38.0059H11.7233C11.7151 37.9667 11.7106 37.9269 11.7098 37.8869C11.7563 37.1876 11.7563 37.1876 12.461 37.1876H14.6926L14.2544 38.0059Z" fill="#C0C0C0"/>
</svg>
